<?xml version="1.0" encoding="utf-8"?>
<!-- Generator: Adobe Illustrator 25.0.0, SVG Export Plug-In . SVG Version: 6.00 Build 0)  -->
<svg version="1.1" id="Capa_1" xmlns="http://www.w3.org/2000/svg" xmlns:xlink="http://www.w3.org/1999/xlink" x="0px" y="0px"
	 viewBox="0 0 200 200" style="enable-background:new 0 0 200 200;" xml:space="preserve">
<g>
	<path d="M65.39,72.4c0-1.8,0.35-3.39,1.04-4.74c0.69-1.36,1.6-2.49,2.73-3.39c1.13-0.9,2.43-1.58,3.9-2.04
		c1.47-0.46,2.98-0.68,4.55-0.68c1.71,0,3.15,0.27,4.32,0.81c1.17,0.54,2.11,1.22,2.82,2.05c0.71,0.83,1.22,1.75,1.52,2.75
		c0.3,1,0.45,1.97,0.45,2.9c0,0.51-0.03,0.92-0.08,1.23c-0.05,0.31-0.08,0.48-0.08,0.52l-1.07-0.11c0.02-0.15,0.04-0.31,0.05-0.49
		c0.02-0.15,0.03-0.32,0.04-0.52c0.01-0.2,0.01-0.43,0.01-0.68c0-0.82-0.12-1.67-0.37-2.54s-0.67-1.67-1.27-2.38
		s-1.42-1.3-2.45-1.76c-1.03-0.46-2.33-0.7-3.9-0.7c-1.37,0-2.63,0.23-3.8,0.7c-1.17,0.46-2.17,1.1-3.01,1.91
		c-0.84,0.81-1.5,1.76-1.97,2.84c-0.47,1.08-0.71,2.26-0.71,3.51s0.21,2.41,0.64,3.46c0.43,1.05,1.03,1.96,1.79,2.75
		c0.82-0.27,1.64-0.49,2.46-0.66s1.66-0.25,2.52-0.25c0.62,0,1.19,0.05,1.71,0.15c0.52,0.1,0.97,0.25,1.35,0.45
		c0.38,0.2,0.68,0.44,0.9,0.72c0.22,0.28,0.33,0.61,0.33,0.97c0,0.51-0.17,0.91-0.51,1.2c-0.34,0.29-0.74,0.51-1.2,0.66
		c-0.46,0.15-0.95,0.24-1.45,0.27c-0.5,0.04-0.92,0.05-1.24,0.05c-1.19,0-2.31-0.16-3.38-0.48c-1.07-0.32-2.04-0.77-2.91-1.35
		c-1.06,0.53-2.06,1.19-2.99,2c-0.94,0.8-1.75,1.74-2.45,2.8c-0.69,1.07-1.24,2.26-1.65,3.57s-0.62,2.73-0.62,4.27
		c0,1.5,0.21,2.81,0.62,3.94c0.41,1.13,0.95,2.1,1.61,2.91c0.67,0.81,1.43,1.49,2.3,2.04c0.87,0.55,1.75,0.98,2.67,1.3
		c0.91,0.32,1.81,0.54,2.69,0.67c0.88,0.13,1.69,0.19,2.42,0.19c2.37,0,4.49-0.38,6.37-1.13c1.88-0.76,3.48-1.78,4.81-3.06
		c1.33-1.29,2.37-2.78,3.12-4.5c0.75-1.71,1.18-3.52,1.29-5.41l1.07,0.05c-0.05,1.59-0.34,3.09-0.86,4.5
		c-0.52,1.41-1.22,2.72-2.09,3.92s-1.9,2.28-3.06,3.24c-1.17,0.96-2.43,1.77-3.8,2.45c-1.37,0.67-2.81,1.19-4.32,1.54
		c-1.51,0.36-3.04,0.53-4.59,0.53c-1.79,0-3.5-0.25-5.13-0.75c-1.63-0.5-3.07-1.24-4.31-2.23c-1.24-0.98-2.22-2.2-2.95-3.65
		c-0.73-1.45-1.09-3.12-1.09-5.02c0-1.62,0.26-3.19,0.79-4.69c0.53-1.5,1.24-2.9,2.15-4.2c0.9-1.29,1.96-2.46,3.19-3.49
		c1.22-1.03,2.52-1.89,3.91-2.58c-0.88-0.78-1.56-1.71-2.06-2.78C65.64,74.9,65.39,73.71,65.39,72.4z M75.53,77.95
		c-1.33,0-2.68,0.21-4.05,0.63c0.67,0.51,1.45,0.9,2.32,1.16c0.88,0.26,1.82,0.4,2.84,0.4c0.67,0,1.2-0.1,1.57-0.29
		c0.37-0.19,0.56-0.41,0.56-0.67c0-0.27-0.29-0.55-0.86-0.82S76.56,77.95,75.53,77.95z"/>
	<path d="M94.42,100.03c0.21,0,0.47-0.12,0.77-0.37c0.3-0.24,0.61-0.57,0.93-0.99c0.32-0.42,0.63-0.89,0.93-1.43
		s0.55-1.11,0.75-1.71c-0.44-0.24-0.78-0.59-1.02-1.05c-0.24-0.46-0.35-0.93-0.35-1.42c0-0.3,0.04-0.59,0.12-0.86
		c0.08-0.27,0.19-0.51,0.33-0.72c0.14-0.21,0.3-0.37,0.48-0.48c0.18-0.11,0.37-0.17,0.57-0.17c0.27,0,0.51,0.13,0.71,0.4
		c0.2,0.27,0.3,0.72,0.3,1.36c0,0.3-0.04,0.66-0.12,1.06c-0.08,0.41-0.2,0.84-0.35,1.3h0.43c0.34,0,0.66-0.06,0.95-0.18
		c0.29-0.12,0.55-0.28,0.78-0.47s0.44-0.42,0.62-0.68c0.18-0.26,0.33-0.52,0.46-0.77l0.26,0.13c-0.09,0.2-0.22,0.46-0.4,0.77
		c-0.18,0.32-0.41,0.62-0.68,0.91c-0.27,0.29-0.59,0.55-0.96,0.76s-0.77,0.32-1.21,0.32c-0.09,0-0.17,0-0.26,0s-0.18-0.01-0.28-0.04
		c-0.23,0.63-0.51,1.26-0.84,1.88c-0.33,0.62-0.69,1.19-1.08,1.69c-0.39,0.5-0.82,0.91-1.27,1.21c-0.45,0.31-0.91,0.46-1.39,0.46
		c-0.19,0-0.35-0.02-0.49-0.05c-0.14-0.04-0.27-0.14-0.39-0.3c-0.12-0.16-0.21-0.41-0.29-0.74c-0.08-0.33-0.15-0.79-0.2-1.38
		c-0.06-0.59-0.1-1.32-0.12-2.2s-0.03-1.95-0.03-3.21c0-0.62-0.17-0.92-0.49-0.92c-0.07,0-0.13,0.01-0.18,0.02
		c-0.05,0.01-0.09,0.02-0.12,0.02c-0.11,0-0.17-0.06-0.17-0.17c0-0.04,0.09-0.12,0.27-0.23s0.47-0.16,0.87-0.16
		c0.46,0,0.76,0.1,0.91,0.31c0.15,0.21,0.23,0.54,0.23,1c0,1.2,0.01,2.21,0.03,3.03s0.05,1.49,0.1,2.02
		c0.04,0.53,0.09,0.93,0.15,1.2c0.06,0.27,0.12,0.47,0.2,0.6c0.08,0.13,0.16,0.2,0.25,0.21C94.23,100.02,94.32,100.03,94.42,100.03z
		 M96.98,92.89c0,0.4,0.08,0.77,0.23,1.12s0.41,0.6,0.78,0.77c0.07-0.26,0.12-0.51,0.16-0.76c0.04-0.25,0.05-0.51,0.05-0.78
		c0-0.14-0.01-0.3-0.02-0.46c-0.01-0.16-0.04-0.31-0.09-0.44s-0.11-0.24-0.19-0.32s-0.2-0.13-0.34-0.13c-0.16,0-0.29,0.1-0.41,0.29
		C97.03,92.37,96.98,92.61,96.98,92.89z"/>
	<path d="M107.48,90.47c0.19,0.04,0.28,0.17,0.28,0.37c0,0.06-0.02,0.13-0.05,0.23c-0.04,0.09-0.08,0.19-0.13,0.28
		c-0.05,0.09-0.1,0.17-0.16,0.24c-0.06,0.06-0.11,0.1-0.15,0.1c-0.07,0-0.16-0.02-0.26-0.08c-0.1-0.05-0.24-0.11-0.43-0.17
		c-0.19-0.06-0.43-0.12-0.73-0.17c-0.3-0.05-0.7-0.08-1.18-0.08c-0.69,0-1.26,0.13-1.72,0.39c-0.46,0.26-0.69,0.62-0.69,1.07
		c0,0.33,0.14,0.61,0.42,0.83c0.28,0.22,0.61,0.4,0.99,0.53c0.38,0.13,0.77,0.22,1.16,0.28c0.39,0.06,0.7,0.09,0.91,0.09
		c0.16,0,0.26,0.03,0.31,0.08c0.05,0.05,0.08,0.1,0.08,0.14c0,0.11-0.05,0.18-0.14,0.2c-0.09,0.02-0.21,0.05-0.35,0.1
		c-0.37,0.13-0.75,0.29-1.14,0.48s-0.74,0.42-1.06,0.69c-0.32,0.27-0.58,0.56-0.78,0.89c-0.2,0.33-0.3,0.69-0.3,1.07
		c0,0.64,0.26,1.18,0.78,1.6c0.52,0.42,1.26,0.63,2.2,0.63c1.07,0,1.97-0.16,2.69-0.48c0.72-0.32,1.31-0.7,1.77-1.13
		c0.46-0.43,0.83-0.86,1.08-1.3c0.26-0.44,0.45-0.77,0.58-1l0.13,0.09c-0.24,0.7-0.56,1.35-0.93,1.96c-0.38,0.6-0.84,1.12-1.38,1.56
		c-0.54,0.44-1.16,0.78-1.88,1.03c-0.72,0.25-1.53,0.38-2.45,0.38c-0.56,0-1.07-0.07-1.55-0.2s-0.88-0.33-1.22-0.57
		c-0.34-0.24-0.61-0.54-0.79-0.9c-0.19-0.36-0.28-0.77-0.28-1.22c0-0.53,0.12-0.99,0.37-1.38c0.24-0.39,0.52-0.71,0.84-0.96
		c0.31-0.25,0.63-0.44,0.93-0.58c0.31-0.14,0.53-0.23,0.66-0.29c-0.44-0.07-0.84-0.19-1.18-0.37c-0.29-0.16-0.55-0.38-0.79-0.66
		c-0.24-0.28-0.37-0.66-0.37-1.15c0-0.44,0.11-0.85,0.32-1.21s0.5-0.67,0.87-0.91c0.37-0.24,0.79-0.43,1.27-0.57
		c0.48-0.14,0.99-0.2,1.54-0.2c0.31,0,0.63,0.02,0.96,0.06S107.15,90.35,107.48,90.47z"/>
	<path d="M112.1,91.5c0.07,0,0.13,0.06,0.17,0.17c0.04,0.11,0.08,0.25,0.1,0.41c0.02,0.16,0.03,0.33,0.03,0.5c0,0.18,0,0.34,0,0.48
		c0,0.37-0.01,0.76-0.03,1.15c-0.02,0.39-0.04,0.77-0.06,1.14s-0.04,0.7-0.05,1.01c-0.01,0.31-0.02,0.56-0.02,0.76
		c0,0.37,0.01,0.67,0.04,0.89c0.03,0.22,0.1,0.33,0.21,0.33c0.07,0,0.16-0.09,0.28-0.28c0.11-0.19,0.24-0.41,0.38-0.68
		c0.14-0.26,0.27-0.55,0.4-0.85s0.25-0.57,0.37-0.79c0.14-0.3,0.3-0.63,0.48-1c0.18-0.37,0.37-0.71,0.57-1.03
		c0.2-0.32,0.41-0.59,0.63-0.81c0.22-0.21,0.45-0.32,0.7-0.32c0.16,0,0.3,0.04,0.42,0.13c0.12,0.09,0.23,0.2,0.31,0.33
		c0.09,0.14,0.15,0.28,0.2,0.43c0.05,0.15,0.09,0.29,0.12,0.42c0.04,0.33,0.09,0.85,0.14,1.56c0.05,0.71,0.12,1.46,0.2,2.27
		c0.07,0.8,0.26,1.39,0.58,1.75c0.31,0.37,0.72,0.55,1.22,0.55c0.2,0,0.36-0.01,0.48-0.04c0.12-0.03,0.23-0.04,0.31-0.04
		c0.07,0,0.09,0.07,0.04,0.21c-0.01,0.03-0.05,0.07-0.1,0.12c-0.05,0.05-0.13,0.1-0.25,0.16c-0.12,0.06-0.27,0.11-0.46,0.15
		s-0.43,0.06-0.7,0.06c-0.46,0-0.84-0.08-1.14-0.23s-0.54-0.39-0.73-0.72c-0.19-0.33-0.32-0.76-0.41-1.28
		c-0.09-0.52-0.14-1.15-0.17-1.88c-0.03-0.34-0.05-0.68-0.08-1s-0.06-0.61-0.11-0.86c-0.05-0.25-0.12-0.45-0.2-0.6
		s-0.21-0.23-0.37-0.23c-0.13,0-0.28,0.13-0.46,0.39c-0.18,0.26-0.35,0.56-0.53,0.91c-0.17,0.35-0.33,0.71-0.48,1.08
		c-0.15,0.37-0.28,0.67-0.38,0.88c-0.32,0.67-0.58,1.22-0.78,1.65c-0.21,0.43-0.43,0.85-0.68,1.25c-0.07,0.11-0.15,0.21-0.23,0.28
		c-0.08,0.07-0.18,0.11-0.29,0.11c-0.17,0-0.31-0.14-0.41-0.43c-0.1-0.29-0.18-0.62-0.23-0.99c-0.05-0.37-0.08-0.75-0.1-1.13
		c-0.01-0.38-0.02-0.67-0.02-0.87c0-0.23,0-0.51,0.01-0.84c0.01-0.33,0.02-0.65,0.03-0.97c0.01-0.31,0.02-0.6,0.03-0.86
		c0.01-0.26,0.01-0.43,0.01-0.52s0-0.2-0.01-0.35c-0.01-0.15-0.01-0.3-0.01-0.45s0-0.29-0.01-0.41c-0.01-0.12-0.01-0.2-0.01-0.25
		c0-0.11,0.03-0.21,0.1-0.29c0.06-0.08,0.13-0.14,0.2-0.18c0.07-0.04,0.19-0.12,0.34-0.23C111.89,91.55,112.01,91.5,112.1,91.5z"/>
	<path d="M128.39,96.42c-0.1,0.29-0.26,0.67-0.47,1.16c-0.21,0.49-0.5,0.96-0.87,1.43c-0.37,0.47-0.81,0.86-1.33,1.19
		c-0.52,0.33-1.13,0.48-1.82,0.45c-0.62-0.04-1.13-0.22-1.55-0.54c-0.42-0.31-0.75-0.8-1.01-1.45c-0.26-0.65-0.44-1.48-0.56-2.47
		c-0.12-1-0.17-2.19-0.17-3.6c0-1.35,0.04-2.56,0.11-3.64c0.07-1.08,0.16-2.04,0.28-2.87c-0.66,0.03-1.24,0.04-1.73,0.04
		s-0.84,0-1.04,0c-0.42,0-0.83-0.03-1.24-0.09c-0.41-0.06-0.79-0.16-1.15-0.3c-0.36-0.14-0.69-0.33-0.99-0.57s-0.55-0.53-0.75-0.89
		l0.09-0.19c0.01,0.03,0.08,0.1,0.2,0.2c0.12,0.11,0.34,0.22,0.66,0.33c0.32,0.11,0.75,0.22,1.29,0.31
		c0.54,0.09,1.25,0.14,2.11,0.14h2.69c0.23-1.29,0.46-2.25,0.7-2.89c0.24-0.64,0.4-1.04,0.48-1.21c0.11-0.24,0.28-0.45,0.5-0.62
		c0.22-0.17,0.41-0.26,0.57-0.26c0.3,0,0.54,0.29,0.73,0.86c0.19,0.57,0.28,1.46,0.28,2.66c0,0.21-0.01,0.44-0.02,0.68
		c-0.01,0.24-0.02,0.48-0.02,0.72c0.69-0.01,1.34-0.03,1.97-0.04c0.62-0.01,1.18-0.03,1.68-0.04c0.49-0.01,0.91-0.03,1.25-0.04
		c0.34-0.01,0.55-0.03,0.66-0.04c0.07,0,0.19-0.01,0.37-0.02c0.17-0.01,0.29-0.02,0.34-0.02c0.23,0,0.34,0.07,0.34,0.21
		c0,0.2-0.06,0.38-0.18,0.55c-0.12,0.17-0.37,0.26-0.74,0.29c-0.07,0.01-0.28,0.03-0.63,0.03c-0.35,0.01-0.79,0.02-1.32,0.03
		c-0.53,0.01-1.12,0.03-1.78,0.05c-0.66,0.02-1.33,0.05-2.02,0.08c-0.14,1.22-0.4,2.55-0.77,3.99c-0.37,1.44-0.9,2.98-1.57,4.63
		c0.06,0.95,0.14,1.73,0.25,2.36c0.11,0.63,0.25,1.14,0.44,1.51c0.19,0.38,0.42,0.65,0.7,0.81c0.28,0.16,0.61,0.24,1,0.24
		c0.42,0,0.8-0.08,1.16-0.24c0.36-0.16,0.68-0.35,0.98-0.59c0.29-0.24,0.55-0.49,0.77-0.77c0.22-0.28,0.41-0.54,0.56-0.78
		c0.15-0.24,0.26-0.44,0.34-0.6c0.08-0.16,0.12-0.24,0.14-0.26L128.39,96.42z M123.42,86.04c-0.24,0-0.48,0.01-0.71,0.02
		c-0.23,0.01-0.47,0.02-0.71,0.02c-0.04,0.82-0.08,1.65-0.1,2.51s-0.03,1.68-0.03,2.45v2.43c0.42-1.3,0.75-2.57,1.02-3.8
		C123.16,88.44,123.34,87.23,123.42,86.04z M122.09,85.07c0.23,0,0.46-0.01,0.7-0.03s0.48-0.03,0.72-0.03v-0.73
		c0-0.72-0.02-1.29-0.06-1.72s-0.09-0.76-0.14-1c-0.05-0.24-0.11-0.39-0.17-0.47c-0.06-0.08-0.12-0.12-0.16-0.12
		c-0.12,0-0.21,0.11-0.3,0.32s-0.17,0.5-0.24,0.87c-0.07,0.37-0.14,0.8-0.19,1.3C122.18,83.96,122.13,84.5,122.09,85.07z"/>
	<path d="M130.77,100.82c-0.95,0-1.72-0.31-2.32-0.93s-0.9-1.53-0.9-2.72c0-0.8,0.15-1.54,0.45-2.22c0.3-0.68,0.69-1.27,1.17-1.76
		c0.48-0.49,1.01-0.88,1.6-1.15c0.59-0.27,1.16-0.41,1.72-0.41c0.9,0,1.62,0.31,2.17,0.92c0.54,0.62,0.82,1.53,0.82,2.73
		c0,0.8-0.14,1.54-0.42,2.21c-0.28,0.67-0.64,1.26-1.1,1.75s-0.96,0.88-1.51,1.16S131.33,100.82,130.77,100.82z M131.52,99.73
		c0.34,0,0.68-0.08,1.01-0.23c0.33-0.15,0.62-0.37,0.88-0.67c0.26-0.29,0.46-0.66,0.61-1.08s0.23-0.93,0.23-1.5
		c0-0.47-0.06-0.92-0.17-1.34c-0.12-0.42-0.28-0.79-0.5-1.11c-0.22-0.31-0.51-0.57-0.86-0.75c-0.35-0.19-0.76-0.28-1.24-0.28
		c-0.33,0-0.66,0.06-0.99,0.18c-0.33,0.12-0.62,0.32-0.88,0.58c-0.26,0.27-0.47,0.6-0.62,1.01c-0.16,0.41-0.24,0.9-0.24,1.47
		c0,0.46,0.06,0.91,0.17,1.34c0.11,0.44,0.28,0.83,0.5,1.19c0.22,0.36,0.51,0.64,0.86,0.86C130.64,99.62,131.05,99.73,131.52,99.73z
		"/>
	<path d="M136.72,98.48c0.49-0.77,0.92-1.56,1.31-2.37c0.39-0.81,0.71-1.6,0.97-2.37c-0.34-0.49-0.63-0.98-0.87-1.49
		c-0.24-0.51-0.35-1.03-0.35-1.58c0-0.53,0.05-1.01,0.15-1.44c0.1-0.43,0.24-0.79,0.41-1.1s0.37-0.53,0.58-0.7
		c0.21-0.16,0.44-0.25,0.67-0.25c0.31,0,0.57,0.16,0.76,0.47c0.19,0.32,0.28,0.72,0.25,1.2c-0.03,0.57-0.1,1.19-0.23,1.85
		c-0.12,0.66-0.3,1.33-0.53,2.02c0.29,0.33,0.58,0.66,0.89,0.98c0.31,0.32,0.59,0.66,0.84,1c0.25,0.34,0.46,0.71,0.62,1.11
		c0.16,0.39,0.25,0.82,0.25,1.28c0,0.63-0.12,1.21-0.35,1.74c-0.24,0.53-0.52,0.99-0.85,1.38c-0.33,0.39-0.67,0.69-1.03,0.9
		c-0.36,0.21-0.67,0.32-0.92,0.32c-0.44,0-0.78-0.12-1.02-0.34c-0.24-0.23-0.35-0.48-0.35-0.75c0-0.21,0.04-0.43,0.11-0.64
		c0.07-0.21,0.15-0.41,0.25-0.59c0.09-0.18,0.19-0.33,0.28-0.44c0.09-0.11,0.16-0.17,0.2-0.17c0.07,0,0.12,0.03,0.14,0.08
		c0.02,0.05,0.03,0.1,0.03,0.14c0,0.07-0.01,0.17-0.02,0.3c-0.01,0.13-0.02,0.24-0.02,0.32c0,0.24,0.08,0.44,0.25,0.6
		c0.16,0.16,0.43,0.24,0.81,0.24c0.16,0,0.34-0.04,0.54-0.11c0.2-0.07,0.39-0.19,0.58-0.34c0.19-0.16,0.34-0.35,0.46-0.59
		c0.12-0.24,0.18-0.52,0.18-0.85c0-0.3-0.07-0.62-0.21-0.95c-0.14-0.33-0.33-0.67-0.56-1.01c-0.23-0.34-0.48-0.69-0.76-1.05
		c-0.28-0.36-0.56-0.72-0.83-1.1c-0.33,0.82-0.69,1.61-1.08,2.37c-0.39,0.77-0.81,1.47-1.26,2.12L136.72,98.48z M138.35,89.54
		c0,0.54,0.1,1.03,0.3,1.45c0.2,0.42,0.46,0.83,0.79,1.24c0.11-0.44,0.19-0.87,0.24-1.28s0.06-0.8,0.06-1.17c0-1-0.22-1.5-0.67-1.5
		c-0.13,0-0.28,0.1-0.46,0.29C138.44,88.76,138.35,89.08,138.35,89.54z"/>
	<path d="M48.74,132.2c-0.22,0-0.42-0.02-0.59-0.06c-0.17-0.04-0.32-0.12-0.44-0.22s-0.21-0.25-0.27-0.43
		c-0.06-0.18-0.09-0.41-0.09-0.68c0-0.17,0.01-0.44,0.03-0.83s0.04-0.86,0.07-1.45s0.05-1.27,0.07-2.05s0.03-1.66,0.03-2.63
		c0-0.48,0-0.93,0-1.37s-0.01-0.83-0.01-1.17s-0.01-0.62-0.01-0.83c0-0.21,0-0.33,0-0.35c0-0.05,0.01-0.1,0.02-0.14
		s0.05-0.08,0.1-0.11c0.04-0.02,0.09-0.05,0.14-0.08c0.06-0.04,0.11-0.05,0.17-0.05c0.07,0,0.13,0.02,0.17,0.06
		c0.04,0.03,0.07,0.09,0.09,0.18s0.04,0.24,0.05,0.45c0.01,0.21,0.02,0.5,0.02,0.88c0,0.37,0,0.86,0,1.45c0,0.55-0.01,1.11-0.04,1.7
		s-0.06,1.16-0.09,1.73s-0.07,1.11-0.12,1.63c-0.04,0.52-0.08,0.99-0.12,1.41c-0.04,0.42-0.07,0.76-0.09,1.04
		c-0.03,0.28-0.04,0.45-0.04,0.53c0,0.16,0.03,0.31,0.1,0.44c0.06,0.13,0.15,0.25,0.26,0.35s0.23,0.17,0.37,0.23
		c0.14,0.05,0.28,0.08,0.42,0.08c0.27,0,0.53-0.07,0.76-0.21c0.23-0.14,0.43-0.32,0.6-0.53c0.17-0.21,0.3-0.44,0.4-0.69
		c0.09-0.25,0.14-0.49,0.14-0.71c0-0.35-0.09-0.63-0.26-0.85c-0.17-0.22-0.41-0.33-0.7-0.33c-0.29,0-0.53,0.07-0.73,0.21
		s-0.36,0.3-0.49,0.5s-0.22,0.4-0.28,0.62s-0.09,0.4-0.09,0.57c0,0.06,0,0.1,0,0.13s0.01,0.08,0.03,0.16
		c0.02,0.08,0.02,0.14-0.01,0.18c-0.03,0.03-0.06,0.04-0.1,0.03c-0.04-0.01-0.08-0.05-0.12-0.12c-0.04-0.07-0.06-0.15-0.06-0.26
		c0-0.27,0.06-0.56,0.18-0.87c0.12-0.31,0.28-0.59,0.48-0.84c0.2-0.26,0.44-0.47,0.72-0.64c0.28-0.17,0.57-0.26,0.88-0.26
		c0.17,0,0.32,0.04,0.46,0.11c0.14,0.07,0.25,0.18,0.35,0.31c0.09,0.13,0.17,0.29,0.22,0.46c0.05,0.17,0.08,0.36,0.08,0.55
		c0,0.33-0.07,0.66-0.22,1s-0.34,0.63-0.59,0.9c-0.24,0.27-0.53,0.48-0.84,0.65C49.42,132.12,49.08,132.2,48.74,132.2z"/>
	<path d="M51.5,140c0-0.38,0.08-0.67,0.23-0.86c0.15-0.19,0.35-0.28,0.59-0.28c0.11,0,0.2,0.02,0.26,0.07s0.1,0.11,0.1,0.18
		c0,0.04-0.02,0.07-0.06,0.07c-0.03,0-0.05-0.01-0.08-0.02c-0.03-0.02-0.07-0.02-0.12-0.02c-0.07,0-0.14,0.03-0.21,0.1
		s-0.11,0.2-0.11,0.39c0,0.22,0.03,0.45,0.09,0.69c0.06,0.24,0.15,0.45,0.27,0.65s0.27,0.36,0.45,0.48s0.39,0.19,0.62,0.19
		c0.2,0,0.38-0.07,0.54-0.21c0.16-0.14,0.29-0.33,0.4-0.58s0.2-0.53,0.28-0.86s0.13-0.69,0.18-1.07s0.07-0.78,0.09-1.2
		c0.02-0.42,0.03-0.83,0.03-1.24c0-0.4,0-0.77-0.01-1.1c-0.01-0.33-0.01-0.64-0.02-0.93s-0.02-0.58-0.03-0.85
		c-0.01-0.28-0.02-0.57-0.03-0.87s-0.02-0.63-0.02-0.98c-0.01-0.35-0.01-0.74-0.01-1.17v-0.84c-0.09,0.27-0.2,0.56-0.34,0.85
		s-0.28,0.56-0.44,0.8c-0.16,0.24-0.34,0.44-0.52,0.6s-0.37,0.23-0.56,0.23c-0.31,0-0.52-0.08-0.65-0.25
		c-0.13-0.17-0.19-0.42-0.19-0.75c0-0.1,0.01-0.25,0.03-0.45s0.04-0.42,0.07-0.64s0.05-0.44,0.07-0.63c0.02-0.2,0.03-0.35,0.03-0.44
		c0-0.28-0.05-0.42-0.16-0.42c-0.01,0-0.02,0-0.03,0c-0.01,0-0.02,0-0.03,0c-0.01,0.01-0.02,0.01-0.03,0.01
		c-0.04,0-0.06-0.03-0.06-0.08c0-0.02,0.05-0.05,0.15-0.1s0.24-0.07,0.42-0.07c0.08,0,0.15,0.02,0.19,0.05
		c0.04,0.03,0.07,0.08,0.08,0.14c0.02,0.06,0.02,0.13,0.02,0.22c0,0.08,0,0.18,0,0.28c0,0.09-0.01,0.24-0.02,0.43
		c-0.02,0.2-0.03,0.41-0.05,0.62c-0.02,0.22-0.04,0.42-0.05,0.62c-0.02,0.19-0.02,0.33-0.02,0.41c0,0.25,0.04,0.43,0.12,0.53
		c0.08,0.1,0.19,0.15,0.34,0.15c0.11,0,0.23-0.06,0.36-0.18c0.13-0.12,0.25-0.28,0.37-0.47s0.23-0.42,0.34-0.66s0.21-0.49,0.3-0.74
		c0.09-0.25,0.16-0.48,0.22-0.71s0.09-0.41,0.11-0.56v-0.02v-0.08c0-0.08,0.02-0.15,0.06-0.21s0.09-0.1,0.16-0.14
		c0.06-0.03,0.13-0.06,0.2-0.07c0.07-0.02,0.13-0.02,0.19-0.02c0.04,0,0.06,0.01,0.07,0.04c0.01,0.03,0.01,0.04,0.01,0.06
		c0,0.02-0.02,0.25-0.05,0.7s-0.05,1.08-0.05,1.89c0,0.49,0,0.92,0.01,1.26c0.01,0.35,0.01,0.66,0.02,0.93
		c0.01,0.27,0.02,0.52,0.03,0.74s0.02,0.46,0.03,0.7s0.02,0.51,0.02,0.81s0.01,0.64,0.01,1.05c0,0.98-0.07,1.84-0.21,2.58
		c-0.14,0.74-0.33,1.35-0.56,1.85c-0.23,0.49-0.5,0.86-0.8,1.11c-0.3,0.25-0.61,0.37-0.93,0.37c-0.22,0-0.43-0.06-0.64-0.17
		c-0.21-0.11-0.39-0.26-0.54-0.45c-0.16-0.19-0.28-0.41-0.38-0.66C51.55,140.56,51.5,140.29,51.5,140z"/>
	<path d="M71.97,120.17c0.25-0.17,0.5-0.37,0.72-0.61c0.23-0.24,0.43-0.5,0.61-0.79s0.32-0.6,0.42-0.94
		c0.1-0.33,0.15-0.68,0.15-1.05c0-0.55-0.12-1.05-0.36-1.49s-0.57-0.82-0.98-1.13c-0.41-0.31-0.9-0.55-1.44-0.71
		s-1.12-0.25-1.73-0.25c-0.76,0-1.5,0.1-2.22,0.31c-0.72,0.21-1.4,0.5-2.03,0.87c-0.63,0.37-1.22,0.82-1.75,1.35
		c-0.53,0.52-0.99,1.1-1.37,1.74s-0.68,1.32-0.9,2.04c-0.21,0.73-0.32,1.49-0.32,2.27c0,0.54,0.05,1.06,0.14,1.56
		c0.09,0.5,0.21,0.99,0.34,1.47s0.29,0.96,0.45,1.43s0.32,0.94,0.45,1.42c0.14,0.47,0.25,0.96,0.34,1.45
		c0.09,0.49,0.14,0.99,0.14,1.51c0,0.13-0.01,0.25-0.02,0.38s-0.04,0.25-0.08,0.37c0.29,0.11,0.57,0.24,0.86,0.39
		c0.28,0.15,0.56,0.29,0.84,0.42c0.27,0.13,0.54,0.24,0.81,0.34c0.26,0.09,0.52,0.14,0.77,0.14c0.26,0,0.49-0.04,0.68-0.11
		c0.19-0.07,0.35-0.18,0.49-0.31c0.14-0.14,0.25-0.29,0.35-0.47s0.18-0.38,0.25-0.6l0.27,0.05c-0.26,0.78-0.59,1.33-0.98,1.65
		c-0.39,0.32-0.86,0.48-1.42,0.48c-0.31,0-0.61-0.04-0.9-0.13s-0.55-0.2-0.81-0.33c-0.26-0.13-0.51-0.27-0.74-0.42
		s-0.47-0.29-0.69-0.41c-0.16,0.3-0.37,0.55-0.62,0.77s-0.55,0.32-0.89,0.32c-0.3,0-0.53-0.08-0.69-0.25
		c-0.17-0.17-0.25-0.35-0.25-0.53c0-0.18,0.04-0.34,0.13-0.5s0.2-0.28,0.34-0.39c0.14-0.11,0.3-0.2,0.47-0.26s0.35-0.09,0.53-0.09
		c0.28,0,0.57,0.05,0.88,0.15c0-0.05,0-0.1,0.01-0.15c0.01-0.05,0.01-0.09,0.01-0.13c0-0.45-0.06-0.9-0.17-1.37
		c-0.11-0.46-0.26-0.93-0.43-1.4s-0.36-0.95-0.56-1.43c-0.2-0.49-0.39-0.98-0.56-1.48c-0.17-0.5-0.32-1.01-0.43-1.53
		s-0.17-1.05-0.17-1.59c0-0.84,0.12-1.66,0.37-2.46c0.25-0.8,0.6-1.57,1.05-2.29s0.98-1.39,1.59-2s1.29-1.14,2.02-1.58
		s1.51-0.79,2.32-1.04c0.82-0.25,1.65-0.37,2.49-0.37c0.8,0,1.5,0.1,2.1,0.3s1.11,0.48,1.52,0.84s0.71,0.77,0.91,1.26
		s0.3,1,0.3,1.56c0,0.43-0.06,0.83-0.19,1.2s-0.3,0.71-0.52,1.04c-0.22,0.32-0.48,0.62-0.78,0.9s-0.62,0.54-0.97,0.79L71.97,120.17z
		 M61.05,132.46c0.22,0,0.4-0.06,0.55-0.17s0.27-0.26,0.36-0.42c-0.16-0.08-0.32-0.14-0.47-0.2c-0.15-0.05-0.3-0.08-0.44-0.08
		c-0.19,0-0.34,0.05-0.43,0.15s-0.14,0.21-0.14,0.32c0,0.12,0.05,0.22,0.14,0.29S60.86,132.46,61.05,132.46z"/>
	<path d="M73.01,128.9c-0.06,0-0.11-0.03-0.16-0.1s-0.11-0.14-0.19-0.22s-0.18-0.15-0.3-0.22s-0.28-0.1-0.47-0.1
		c-0.27,0-0.53,0.07-0.76,0.21c-0.23,0.14-0.44,0.32-0.61,0.53c-0.17,0.21-0.3,0.44-0.4,0.69c-0.09,0.25-0.14,0.49-0.14,0.71
		c0,0.34,0.09,0.63,0.26,0.85c0.18,0.22,0.41,0.33,0.7,0.33c0.23,0,0.43-0.04,0.6-0.13s0.32-0.2,0.43-0.35
		c-0.04-0.18-0.06-0.39-0.06-0.65c0-0.28,0.02-0.51,0.06-0.68s0.09-0.31,0.16-0.41s0.13-0.17,0.19-0.2
		c0.06-0.04,0.12-0.05,0.17-0.05c0.05,0,0.11,0.04,0.18,0.11c0.07,0.07,0.1,0.2,0.1,0.38c0,0.23-0.04,0.47-0.12,0.72
		c-0.08,0.25-0.19,0.49-0.34,0.72c0.08,0.2,0.2,0.35,0.36,0.44c0.16,0.09,0.35,0.14,0.56,0.14c0.18,0,0.35-0.04,0.51-0.12
		c0.16-0.08,0.31-0.19,0.45-0.33s0.27-0.29,0.4-0.47c0.12-0.18,0.24-0.36,0.34-0.55l0.06,0.04c-0.08,0.25-0.18,0.49-0.31,0.72
		s-0.28,0.44-0.45,0.62c-0.17,0.18-0.35,0.33-0.55,0.43s-0.41,0.16-0.62,0.16c-0.16,0-0.34-0.05-0.53-0.16s-0.35-0.3-0.47-0.58
		c-0.2,0.24-0.43,0.44-0.69,0.6c-0.26,0.16-0.54,0.24-0.84,0.24c-0.17,0-0.32-0.04-0.46-0.12s-0.25-0.18-0.35-0.31
		c-0.09-0.13-0.17-0.28-0.22-0.46s-0.08-0.36-0.08-0.56c0-0.33,0.07-0.66,0.22-1s0.34-0.63,0.59-0.9c0.24-0.27,0.52-0.48,0.84-0.65
		s0.65-0.25,0.99-0.25c0.25,0,0.47,0.03,0.64,0.08c0.17,0.05,0.31,0.12,0.42,0.2c0.1,0.07,0.18,0.15,0.22,0.23s0.07,0.14,0.07,0.19
		c0,0.09-0.05,0.15-0.14,0.19C73.17,128.88,73.08,128.9,73.01,128.9z M72.19,130.2c0,0.21,0.02,0.4,0.06,0.56
		c0.1-0.18,0.17-0.37,0.21-0.56c0.05-0.19,0.07-0.36,0.07-0.49c0-0.16-0.03-0.24-0.09-0.24s-0.12,0.07-0.17,0.21
		C72.21,129.82,72.19,129.99,72.19,130.2z"/>
	<path d="M78.9,126.38c0.03,0,0.04,0.06,0.03,0.19s-0.03,0.29-0.05,0.49c-0.02,0.2-0.05,0.42-0.07,0.66
		c-0.03,0.24-0.04,0.47-0.04,0.7c0,0.46,0,0.89,0.01,1.3c0.01,0.4,0.02,0.8,0.04,1.18c0.21-0.36,0.43-0.68,0.66-0.98
		s0.45-0.54,0.68-0.75c0.23-0.21,0.46-0.37,0.68-0.48c0.23-0.11,0.46-0.17,0.68-0.17c0.18,0,0.34,0.05,0.46,0.15
		c0.12,0.1,0.19,0.28,0.19,0.53c0,0.18-0.04,0.37-0.11,0.55s-0.18,0.37-0.3,0.56s-0.27,0.37-0.43,0.54s-0.32,0.34-0.48,0.5
		c-0.39,0.36-0.83,0.72-1.32,1.06l-0.1-0.12c0.38-0.33,0.73-0.66,1.04-0.98c0.13-0.14,0.26-0.28,0.38-0.42s0.23-0.29,0.33-0.44
		s0.18-0.29,0.24-0.42c0.06-0.13,0.09-0.26,0.09-0.38c0-0.04,0-0.09-0.01-0.16c-0.01-0.07-0.03-0.13-0.07-0.19
		c-0.04-0.06-0.1-0.11-0.17-0.16c-0.07-0.04-0.17-0.06-0.3-0.06c-0.15,0-0.31,0.05-0.48,0.16c-0.17,0.1-0.34,0.25-0.52,0.44
		c-0.18,0.19-0.36,0.43-0.55,0.7c-0.19,0.28-0.37,0.58-0.55,0.92c0.03,0.47,0.06,0.92,0.09,1.36c0.03,0.44,0.06,0.87,0.09,1.3
		c0.03,0.43,0.05,0.87,0.07,1.32s0.02,0.92,0.02,1.42c0,1.15-0.06,2.15-0.19,3.01s-0.29,1.58-0.49,2.15s-0.42,1.01-0.67,1.3
		c-0.25,0.29-0.5,0.43-0.75,0.43c-0.14,0-0.28-0.06-0.42-0.18s-0.26-0.29-0.37-0.51s-0.2-0.5-0.26-0.83c-0.07-0.33-0.1-0.7-0.1-1.12
		c0-0.62,0.06-1.31,0.18-2.06c0.12-0.76,0.28-1.53,0.49-2.32s0.46-1.58,0.75-2.36c0.29-0.79,0.6-1.52,0.93-2.2v-0.98
		c0-0.77,0.03-1.44,0.09-2.03c0.06-0.58,0.13-1.07,0.21-1.46c0.08-0.39,0.15-0.69,0.23-0.89C78.83,126.48,78.88,126.38,78.9,126.38z
		 M78.45,137.12c0-0.57-0.01-1.05-0.02-1.44c-0.02-0.39-0.04-0.74-0.06-1.05c-0.02-0.32-0.05-0.63-0.07-0.94s-0.04-0.68-0.05-1.1
		c-0.25,0.56-0.48,1.16-0.69,1.8c-0.21,0.64-0.41,1.3-0.57,1.99s-0.3,1.37-0.39,2.07c-0.09,0.7-0.14,1.38-0.14,2.04
		c0,0.25,0.01,0.54,0.04,0.85s0.07,0.61,0.14,0.88s0.16,0.5,0.26,0.69s0.25,0.28,0.42,0.28c0.13,0,0.25-0.08,0.36-0.24
		c0.11-0.16,0.21-0.39,0.29-0.67c0.08-0.29,0.16-0.62,0.22-1.01c0.06-0.39,0.11-0.81,0.15-1.25s0.07-0.92,0.09-1.41
		S78.45,137.61,78.45,137.12z"/>
	<path d="M85.67,127.46c0.09,0.02,0.13,0.07,0.13,0.17c0,0.03-0.01,0.06-0.02,0.1c-0.02,0.04-0.04,0.08-0.06,0.13
		c-0.02,0.04-0.05,0.08-0.07,0.11c-0.03,0.03-0.05,0.04-0.07,0.04c-0.03,0-0.07-0.01-0.12-0.03c-0.04-0.02-0.11-0.05-0.2-0.08
		c-0.08-0.03-0.2-0.06-0.33-0.08c-0.14-0.02-0.32-0.03-0.54-0.03c-0.31,0-0.57,0.06-0.78,0.18s-0.31,0.28-0.31,0.49
		c0,0.15,0.06,0.27,0.19,0.38c0.13,0.1,0.28,0.18,0.45,0.24s0.35,0.1,0.53,0.13c0.18,0.03,0.32,0.04,0.42,0.04
		c0.07,0,0.12,0.01,0.14,0.03c0.02,0.02,0.03,0.04,0.03,0.06c0,0.05-0.02,0.08-0.06,0.09c-0.04,0.01-0.1,0.02-0.16,0.04
		c-0.17,0.06-0.34,0.13-0.52,0.22s-0.34,0.19-0.48,0.31c-0.15,0.12-0.27,0.25-0.36,0.41c-0.09,0.15-0.14,0.31-0.14,0.49
		c0,0.29,0.12,0.54,0.36,0.73c0.24,0.19,0.57,0.29,1,0.29c0.49,0,0.9-0.07,1.22-0.22c0.33-0.15,0.59-0.32,0.81-0.51
		c0.21-0.2,0.38-0.39,0.49-0.59c0.12-0.2,0.21-0.35,0.26-0.45l0.06,0.04c-0.11,0.32-0.25,0.62-0.42,0.89
		c-0.17,0.27-0.38,0.51-0.62,0.71c-0.24,0.2-0.53,0.35-0.86,0.47c-0.33,0.11-0.7,0.17-1.11,0.17c-0.25,0-0.49-0.03-0.7-0.09
		c-0.21-0.06-0.4-0.15-0.56-0.26c-0.16-0.11-0.28-0.25-0.36-0.41c-0.08-0.16-0.13-0.35-0.13-0.56c0-0.24,0.06-0.45,0.17-0.62
		s0.24-0.32,0.38-0.43c0.14-0.11,0.28-0.2,0.42-0.26c0.14-0.06,0.24-0.11,0.3-0.13c-0.2-0.03-0.38-0.09-0.54-0.17
		c-0.13-0.07-0.25-0.17-0.36-0.3s-0.17-0.3-0.17-0.52c0-0.2,0.05-0.39,0.15-0.55s0.23-0.3,0.4-0.42c0.17-0.11,0.36-0.2,0.58-0.26
		c0.22-0.06,0.45-0.09,0.7-0.09c0.14,0,0.29,0.01,0.44,0.03S85.52,127.4,85.67,127.46z"/>
	<path d="M90.87,130.16c-0.01,0.04-0.06,0.17-0.15,0.37c-0.09,0.2-0.21,0.41-0.36,0.63s-0.33,0.43-0.55,0.61
		c-0.21,0.18-0.45,0.27-0.72,0.27c-0.34,0-0.66-0.13-0.94-0.4s-0.52-0.64-0.72-1.12c-0.2-0.49-0.35-1.07-0.46-1.76
		c-0.11-0.69-0.16-1.46-0.16-2.31c0-0.47,0.02-0.96,0.05-1.48s0.08-1.03,0.16-1.53c0.07-0.5,0.16-0.98,0.27-1.44
		c0.11-0.46,0.24-0.86,0.39-1.2c0.15-0.35,0.32-0.62,0.52-0.83s0.42-0.31,0.66-0.31c0.36,0,0.62,0.22,0.79,0.65
		c0.17,0.44,0.25,1.11,0.25,2.02c0,0.53-0.04,1.13-0.12,1.79c-0.08,0.66-0.21,1.34-0.4,2.03c-0.25,0.87-0.51,1.62-0.78,2.23
		s-0.5,1.1-0.69,1.47c0.07,0.25,0.15,0.48,0.24,0.69c0.09,0.21,0.19,0.39,0.3,0.54c0.11,0.15,0.23,0.27,0.36,0.36
		c0.13,0.08,0.27,0.13,0.43,0.13c0.2,0,0.38-0.06,0.55-0.18s0.32-0.25,0.45-0.41s0.25-0.32,0.35-0.48c0.1-0.16,0.17-0.29,0.22-0.39
		L90.87,130.16z M87.41,125.76c0,0.27,0.01,0.57,0.02,0.88c0.02,0.32,0.04,0.64,0.07,0.96c0.03,0.33,0.07,0.65,0.12,0.98
		c0.05,0.33,0.11,0.64,0.18,0.94c0.14-0.29,0.3-0.65,0.48-1.1s0.36-0.96,0.54-1.52c0.17-0.56,0.32-1.17,0.44-1.83
		c0.12-0.66,0.18-1.34,0.18-2.04c0-0.44-0.02-0.85-0.05-1.22c-0.04-0.37-0.09-0.68-0.16-0.95s-0.16-0.47-0.27-0.62
		s-0.23-0.22-0.38-0.22c-0.14,0-0.26,0.1-0.37,0.29c-0.11,0.19-0.21,0.44-0.3,0.76s-0.16,0.67-0.23,1.07
		c-0.07,0.4-0.12,0.82-0.16,1.24c-0.04,0.42-0.07,0.84-0.09,1.25C87.42,125.05,87.41,125.42,87.41,125.76z"/>
	<path d="M93.31,130.28c0-0.05,0-0.1,0-0.17c0-0.07,0-0.13,0-0.2c0-0.07,0-0.12,0-0.17s0-0.08,0-0.1c0-0.05-0.01-0.08-0.02-0.09
		c-0.02-0.01-0.03,0.02-0.05,0.11c-0.01,0.03-0.04,0.1-0.08,0.22c-0.04,0.12-0.09,0.27-0.17,0.44c-0.07,0.17-0.16,0.36-0.26,0.56
		c-0.1,0.2-0.22,0.38-0.36,0.55s-0.29,0.3-0.46,0.42c-0.17,0.11-0.35,0.17-0.56,0.17c-0.31,0-0.52-0.08-0.65-0.25
		s-0.19-0.42-0.19-0.75c0-0.1,0.01-0.24,0.03-0.42s0.04-0.38,0.07-0.58c0.03-0.2,0.05-0.39,0.07-0.57c0.02-0.18,0.03-0.32,0.03-0.42
		c0-0.28-0.07-0.42-0.21-0.42c-0.03,0-0.06,0-0.09,0.01c-0.03,0.01-0.05,0.01-0.06,0.01c-0.05,0-0.08-0.03-0.08-0.08
		c0-0.02,0.03-0.05,0.08-0.1s0.17-0.07,0.36-0.07c0.21,0,0.35,0.08,0.43,0.23s0.12,0.34,0.12,0.55c0,0.09-0.01,0.22-0.02,0.39
		s-0.03,0.34-0.05,0.52c-0.02,0.18-0.04,0.36-0.05,0.52s-0.02,0.29-0.02,0.37c0,0.25,0.04,0.42,0.12,0.52
		c0.08,0.1,0.19,0.15,0.34,0.15c0.14,0,0.27-0.05,0.41-0.16s0.26-0.24,0.37-0.39c0.11-0.15,0.21-0.31,0.3-0.47
		c0.08-0.16,0.15-0.3,0.21-0.41c0.05-0.14,0.1-0.3,0.14-0.47c0.04-0.17,0.08-0.34,0.11-0.51c0.04-0.17,0.07-0.34,0.09-0.49
		s0.05-0.29,0.08-0.41c0.01-0.06,0.08-0.1,0.19-0.12c0.11-0.02,0.22-0.03,0.33-0.03c0.06,0,0.09,0.02,0.09,0.06
		c0,0.16,0,0.38-0.01,0.66c-0.01,0.28-0.01,0.57-0.01,0.86c0,0.73,0.04,1.25,0.13,1.58s0.26,0.48,0.52,0.48
		c0.06,0,0.11-0.01,0.15-0.02c0.04-0.01,0.08-0.02,0.11-0.02c0.03,0,0.04,0.01,0.04,0.04c0-0.02,0-0.02,0,0.01
		c0,0.03-0.01,0.06-0.04,0.1c-0.03,0.04-0.08,0.08-0.17,0.12c-0.08,0.04-0.2,0.05-0.37,0.05c-0.18,0-0.32-0.03-0.43-0.09
		c-0.11-0.06-0.21-0.17-0.28-0.31c-0.07-0.14-0.12-0.33-0.16-0.56C93.35,130.89,93.32,130.61,93.31,130.28z"/>
	<path d="M101.39,128.06c-0.02-0.19-0.03-0.38-0.03-0.59c0-0.2,0-0.41,0-0.63c0-0.47,0.01-0.96,0.03-1.48s0.06-1.03,0.11-1.53
		c0.05-0.5,0.11-0.98,0.18-1.44c0.07-0.46,0.16-0.86,0.26-1.2c0.1-0.35,0.22-0.62,0.35-0.83s0.28-0.31,0.44-0.31
		c0.25,0,0.43,0.22,0.55,0.65c0.12,0.44,0.18,1.11,0.18,2.02c0,0.53-0.03,1.13-0.1,1.79c-0.07,0.66-0.19,1.34-0.36,2.03
		c-0.14,0.59-0.28,1.11-0.41,1.56c-0.13,0.45-0.25,0.83-0.36,1.17c0.06,0.31,0.13,0.61,0.22,0.89c0.09,0.28,0.19,0.52,0.3,0.73
		c0.11,0.21,0.23,0.37,0.37,0.49c0.14,0.12,0.29,0.18,0.45,0.18c0.14,0,0.27-0.06,0.41-0.17c0.14-0.11,0.27-0.24,0.39-0.39
		c0.12-0.15,0.23-0.3,0.32-0.46s0.17-0.28,0.22-0.38l0.09,0.04c-0.07,0.18-0.13,0.34-0.2,0.48c-0.07,0.14-0.14,0.29-0.24,0.45
		c-0.09,0.16-0.2,0.31-0.32,0.45c-0.12,0.14-0.25,0.26-0.39,0.35c-0.14,0.09-0.3,0.14-0.46,0.14c-0.35,0-0.66-0.15-0.93-0.45
		c-0.27-0.3-0.49-0.73-0.67-1.3c-0.09,0.21-0.21,0.41-0.34,0.61c-0.14,0.2-0.29,0.37-0.46,0.53c-0.17,0.15-0.36,0.27-0.56,0.37
		c-0.21,0.09-0.42,0.14-0.64,0.14c-0.17,0-0.33-0.03-0.48-0.09s-0.29-0.15-0.4-0.26c-0.11-0.11-0.2-0.25-0.26-0.41
		s-0.1-0.33-0.1-0.53c0-0.33,0.08-0.66,0.22-0.97c0.15-0.32,0.35-0.6,0.61-0.85c0.25-0.25,0.54-0.45,0.87-0.61
		c0.33-0.15,0.68-0.23,1.04-0.23H101.39z M100.17,131.4c0.2,0,0.38-0.04,0.54-0.13s0.3-0.2,0.42-0.33c0.12-0.13,0.23-0.28,0.32-0.44
		c0.09-0.16,0.17-0.32,0.24-0.47c-0.07-0.23-0.12-0.48-0.16-0.73c-0.04-0.25-0.08-0.52-0.11-0.8c-0.1-0.04-0.21-0.06-0.32-0.06
		c-0.34,0-0.63,0.05-0.87,0.16s-0.44,0.25-0.6,0.42c-0.16,0.17-0.27,0.36-0.35,0.57c-0.08,0.21-0.11,0.41-0.11,0.62
		c0,0.34,0.09,0.63,0.28,0.86C99.64,131.29,99.88,131.4,100.17,131.4z M102.56,120.52c-0.07,0-0.13,0.09-0.19,0.28
		s-0.11,0.43-0.15,0.74c-0.05,0.31-0.08,0.66-0.12,1.05c-0.03,0.4-0.06,0.8-0.08,1.22c-0.02,0.42-0.04,0.83-0.05,1.24
		c-0.01,0.41-0.01,0.78-0.01,1.11c0,0.38,0.02,0.8,0.05,1.25c0.03,0.45,0.08,0.9,0.16,1.35c0.1-0.31,0.2-0.67,0.3-1.06
		c0.1-0.39,0.2-0.82,0.28-1.27c0.08-0.45,0.15-0.93,0.2-1.44c0.05-0.5,0.08-1.03,0.08-1.58c0-0.45-0.01-0.85-0.03-1.21
		c-0.02-0.36-0.05-0.66-0.08-0.91c-0.04-0.25-0.08-0.44-0.14-0.58C102.7,120.59,102.63,120.52,102.56,120.52z"/>
	<path d="M107.39,127.46c0.08,0.02,0.13,0.07,0.13,0.17c0,0.03-0.01,0.06-0.02,0.1c-0.02,0.04-0.04,0.08-0.06,0.13
		c-0.02,0.04-0.05,0.08-0.07,0.11s-0.05,0.04-0.07,0.04c-0.03,0-0.07-0.01-0.12-0.03c-0.05-0.02-0.11-0.05-0.2-0.08
		s-0.2-0.06-0.33-0.08c-0.14-0.02-0.32-0.03-0.54-0.03c-0.31,0-0.57,0.06-0.78,0.18s-0.31,0.28-0.31,0.49
		c0,0.15,0.06,0.27,0.19,0.38c0.13,0.1,0.28,0.18,0.45,0.24s0.35,0.1,0.53,0.13c0.18,0.03,0.32,0.04,0.42,0.04
		c0.07,0,0.12,0.01,0.14,0.03c0.02,0.02,0.03,0.04,0.03,0.06c0,0.05-0.02,0.08-0.06,0.09s-0.1,0.02-0.16,0.04
		c-0.17,0.06-0.34,0.13-0.52,0.22s-0.34,0.19-0.48,0.31c-0.15,0.12-0.27,0.25-0.36,0.41c-0.09,0.15-0.14,0.31-0.14,0.49
		c0,0.29,0.12,0.54,0.36,0.73c0.24,0.19,0.57,0.29,1,0.29c0.49,0,0.9-0.07,1.22-0.22s0.59-0.32,0.81-0.51s0.38-0.39,0.49-0.59
		c0.12-0.2,0.21-0.35,0.26-0.45l0.06,0.04c-0.11,0.32-0.25,0.62-0.42,0.89s-0.38,0.51-0.62,0.71c-0.24,0.2-0.53,0.35-0.85,0.47
		c-0.33,0.11-0.7,0.17-1.11,0.17c-0.25,0-0.49-0.03-0.7-0.09c-0.21-0.06-0.4-0.15-0.56-0.26c-0.16-0.11-0.28-0.25-0.36-0.41
		c-0.08-0.16-0.13-0.35-0.13-0.56c0-0.24,0.06-0.45,0.17-0.62s0.24-0.32,0.38-0.43c0.14-0.11,0.29-0.2,0.42-0.26
		c0.14-0.06,0.24-0.11,0.3-0.13c-0.2-0.03-0.38-0.09-0.54-0.17c-0.13-0.07-0.25-0.17-0.36-0.3s-0.17-0.3-0.17-0.52
		c0-0.2,0.05-0.39,0.15-0.55s0.23-0.3,0.4-0.42c0.17-0.11,0.36-0.2,0.58-0.26c0.22-0.06,0.45-0.09,0.7-0.09
		c0.14,0,0.29,0.01,0.43,0.03S107.24,127.4,107.39,127.46z"/>
	<path d="M133.65,133.48c-1.04,0-1.56-0.62-1.56-1.87c0-0.91,0.23-2.02,0.7-3.31c0.11-0.27,0.28-0.67,0.5-1.19
		c0.22-0.52,0.51-1.16,0.86-1.93c1.38-2.98,2.06-5.3,2.06-6.96c0-1.38-0.47-2.06-1.42-2.06c-2.37,0-5.06,4.3-8.09,12.91
		c-0.11,0.34-0.25,0.76-0.42,1.26s-0.37,1.08-0.61,1.74c-0.08,0.13-0.18,0.19-0.31,0.19c-0.32,0-0.48-0.13-0.48-0.38
		c0-0.05,0.32-1.01,0.96-2.88c1.5-4.35,2.26-7.5,2.26-9.46c0-1.74-0.54-2.62-1.63-2.62c-1.5,0-3.13,1.93-4.87,5.78
		c-0.3,0.64-0.61,1.36-0.92,2.15c-0.31,0.79-0.64,1.66-0.97,2.6l-1.3,3.72c-0.05,0.11-0.1,0.23-0.14,0.35
		c-0.05,0.12-0.09,0.24-0.12,0.37c-0.14,0.35-0.3,0.53-0.48,0.53c-0.3,0-0.46-0.13-0.46-0.38v-0.07l1.78-5.76
		c0.32-1.14,0.56-2.2,0.73-3.18c0.17-0.98,0.25-1.9,0.25-2.75c0-2.93-1.09-4.39-3.26-4.39c-1.1,0-2.08,0.42-2.93,1.25
		c-0.86,0.83-1.3,1.79-1.3,2.88c0,0.75,0.28,1.45,0.84,2.09c0.56,0.62,1.21,0.94,1.97,0.94c0.67,0,1.25-0.28,1.73-0.84
		c0.45-0.5,0.67-1.06,0.67-1.7c0-0.99-0.55-1.49-1.66-1.49c-0.38,0-0.58-0.13-0.58-0.38c0-0.27,0.24-0.41,0.72-0.41
		c0.74,0,1.31,0.23,1.73,0.7c0.37,0.42,0.55,0.96,0.55,1.63c0,0.85-0.28,1.6-0.84,2.26c-0.59,0.74-1.38,1.1-2.35,1.1
		c-0.99,0-1.84-0.4-2.54-1.2c-0.69-0.78-1.03-1.68-1.03-2.69c0-1.31,0.5-2.46,1.51-3.43c1.04-0.99,2.2-1.49,3.48-1.49
		c2.86,0,4.3,1.76,4.3,5.28c0,0.35-0.02,0.72-0.05,1.1c-0.03,0.38-0.08,0.78-0.14,1.2c1.82-4.38,3.74-6.58,5.74-6.58
		c1.57,0,2.35,1.18,2.35,3.55c0,0.7-0.07,1.5-0.22,2.4c1.97-4.46,4.01-6.7,6.12-6.7c0.75,0,1.34,0.3,1.75,0.91
		c0.34,0.5,0.5,1.15,0.5,1.97c0,1.7-0.7,4.1-2.09,7.2c-0.35,0.78-0.64,1.43-0.88,1.94c-0.23,0.51-0.39,0.89-0.47,1.13
		c-0.48,1.3-0.72,2.38-0.72,3.24c0,0.34,0.06,0.55,0.19,0.65c0.11,0.11,0.34,0.18,0.7,0.22c0.35,0.05,0.53,0.2,0.53,0.46
		C134.3,133.34,134.08,133.48,133.65,133.48z"/>
	<path d="M139.5,128.9c-0.06,0-0.11-0.03-0.16-0.1s-0.11-0.14-0.19-0.22s-0.18-0.15-0.3-0.22s-0.28-0.1-0.47-0.1
		c-0.27,0-0.53,0.07-0.76,0.21c-0.23,0.14-0.44,0.32-0.61,0.53c-0.17,0.21-0.3,0.44-0.4,0.69c-0.09,0.25-0.14,0.49-0.14,0.71
		c0,0.34,0.09,0.63,0.26,0.85c0.18,0.22,0.41,0.33,0.7,0.33c0.23,0,0.43-0.04,0.6-0.13s0.32-0.2,0.43-0.35
		c-0.04-0.18-0.06-0.39-0.06-0.65c0-0.28,0.02-0.51,0.06-0.68s0.09-0.31,0.16-0.41s0.12-0.17,0.19-0.2
		c0.07-0.04,0.12-0.05,0.17-0.05c0.05,0,0.11,0.04,0.18,0.11c0.07,0.07,0.1,0.2,0.1,0.38c0,0.23-0.04,0.47-0.12,0.72
		c-0.08,0.25-0.19,0.49-0.34,0.72c0.08,0.2,0.2,0.35,0.36,0.44c0.16,0.09,0.35,0.14,0.56,0.14c0.18,0,0.35-0.04,0.51-0.12
		c0.16-0.08,0.31-0.19,0.45-0.33s0.27-0.29,0.4-0.47c0.12-0.18,0.24-0.36,0.34-0.55l0.06,0.04c-0.08,0.25-0.18,0.49-0.31,0.72
		s-0.28,0.44-0.45,0.62c-0.17,0.18-0.35,0.33-0.55,0.43s-0.41,0.16-0.62,0.16c-0.16,0-0.34-0.05-0.53-0.16s-0.35-0.3-0.47-0.58
		c-0.2,0.24-0.43,0.44-0.69,0.6c-0.26,0.16-0.54,0.24-0.84,0.24c-0.17,0-0.32-0.04-0.46-0.12s-0.25-0.18-0.35-0.31
		c-0.09-0.13-0.17-0.28-0.22-0.46s-0.08-0.36-0.08-0.56c0-0.33,0.07-0.66,0.22-1s0.34-0.63,0.59-0.9c0.24-0.27,0.52-0.48,0.84-0.65
		s0.65-0.25,0.99-0.25c0.25,0,0.47,0.03,0.64,0.08c0.17,0.05,0.31,0.12,0.42,0.2c0.1,0.07,0.18,0.15,0.22,0.23s0.07,0.14,0.07,0.19
		c0,0.09-0.05,0.15-0.14,0.19C139.67,128.88,139.58,128.9,139.5,128.9z M138.68,130.2c0,0.21,0.02,0.4,0.06,0.56
		c0.1-0.18,0.17-0.37,0.21-0.56c0.05-0.19,0.07-0.36,0.07-0.49c0-0.16-0.03-0.24-0.09-0.24s-0.12,0.07-0.17,0.21
		C138.71,129.82,138.68,129.99,138.68,130.2z"/>
	<path d="M143.08,128.16c0.16,0,0.29,0.03,0.39,0.1s0.17,0.15,0.22,0.24c0.05,0.09,0.08,0.19,0.09,0.29s0.02,0.18,0.02,0.24
		c0,0.08-0.01,0.2-0.03,0.37c-0.02,0.17-0.04,0.34-0.06,0.53c-0.02,0.18-0.04,0.35-0.06,0.51s-0.03,0.26-0.03,0.31
		c0,0.13,0.01,0.25,0.03,0.36s0.06,0.2,0.11,0.29c0.05,0.08,0.12,0.15,0.21,0.2c0.09,0.04,0.21,0.07,0.36,0.07
		c0.27,0,0.56-0.14,0.86-0.41s0.58-0.65,0.84-1.13l0.06,0.04c-0.07,0.24-0.18,0.49-0.33,0.74c-0.15,0.25-0.32,0.48-0.52,0.69
		c-0.2,0.21-0.4,0.38-0.62,0.51c-0.22,0.13-0.44,0.2-0.64,0.2c-0.18,0-0.32-0.04-0.42-0.11c-0.11-0.08-0.19-0.17-0.25-0.28
		c-0.06-0.11-0.1-0.24-0.12-0.37c-0.02-0.13-0.03-0.26-0.03-0.38c0-0.14,0.01-0.31,0.04-0.5c0.03-0.19,0.05-0.38,0.08-0.58
		c0.03-0.19,0.06-0.37,0.08-0.54c0.03-0.17,0.04-0.3,0.04-0.4c0-0.08-0.01-0.15-0.04-0.21c-0.03-0.05-0.07-0.09-0.11-0.12
		s-0.09-0.05-0.14-0.05c-0.05-0.01-0.08-0.01-0.11-0.01c-0.07,0-0.16,0.01-0.28,0.03s-0.28,0.03-0.48,0.03c-0.06,0-0.12,0-0.18-0.01
		c-0.06-0.01-0.12-0.02-0.19-0.03c-0.02,0.25-0.06,0.5-0.12,0.74c-0.06,0.24-0.13,0.46-0.21,0.66c-0.08,0.2-0.15,0.38-0.23,0.52
		s-0.14,0.25-0.2,0.31c-0.08,0-0.13-0.04-0.13-0.12c0.01-0.04,0.04-0.12,0.1-0.24c0.06-0.12,0.13-0.28,0.21-0.46
		c0.08-0.19,0.15-0.41,0.21-0.67c0.07-0.26,0.11-0.55,0.12-0.87c-0.31-0.18-0.46-0.49-0.46-0.94c0-0.12,0.02-0.23,0.07-0.31
		c0.05-0.08,0.12-0.13,0.22-0.13c0.14,0,0.25,0.08,0.31,0.25s0.1,0.39,0.11,0.67c0.05,0.01,0.09,0.02,0.13,0.03
		c0.04,0.01,0.09,0.01,0.15,0.01c0.17,0,0.33-0.01,0.47-0.03S142.94,128.16,143.08,128.16z M141.58,127.92
		c0,0.03,0.01,0.05,0.04,0.08c-0.01-0.03-0.01-0.07-0.01-0.1c0-0.03-0.01-0.06-0.01-0.08c-0.01-0.03-0.01-0.05-0.01-0.07
		c-0.02,0-0.04,0.01-0.05,0.03S141.54,127.85,141.58,127.92z"/>
	<path d="M146.16,128.22c0.05,0,0.1,0.01,0.15,0.04s0.09,0.06,0.13,0.09c0.04,0.03,0.07,0.07,0.09,0.1
		c0.02,0.04,0.03,0.06,0.03,0.06c0,0.01-0.01,0.04-0.02,0.1c-0.02,0.06-0.04,0.16-0.06,0.31c-0.02,0.14-0.04,0.33-0.06,0.56
		c-0.02,0.23-0.02,0.52-0.02,0.86c0,0.46,0.06,0.78,0.17,0.97c0.11,0.18,0.25,0.27,0.42,0.27s0.32-0.05,0.48-0.15
		s0.31-0.22,0.45-0.38s0.28-0.33,0.41-0.53c0.13-0.2,0.24-0.4,0.34-0.6l0.06,0.04c-0.03,0.06-0.07,0.16-0.12,0.3
		c-0.05,0.13-0.12,0.28-0.2,0.43s-0.17,0.32-0.28,0.48s-0.23,0.32-0.37,0.45c-0.14,0.13-0.29,0.24-0.46,0.33s-0.35,0.13-0.54,0.13
		c-0.14,0-0.26-0.03-0.38-0.08c-0.11-0.05-0.21-0.15-0.3-0.29c-0.09-0.14-0.16-0.33-0.21-0.58c-0.05-0.25-0.07-0.57-0.07-0.96
		c0-0.2,0.01-0.42,0.02-0.65c0.02-0.23,0.04-0.45,0.07-0.64c0.03-0.2,0.07-0.36,0.11-0.49C146.05,128.28,146.1,128.22,146.16,128.22
		z M146.35,127.36c-0.04,0.04-0.08,0.06-0.14,0.06c-0.04,0-0.07-0.02-0.1-0.05c-0.03-0.03-0.05-0.07-0.06-0.12
		c0-0.05,0.02-0.09,0.07-0.14c0.32-0.28,0.62-0.58,0.91-0.88c0.29-0.31,0.53-0.58,0.73-0.8c0.01-0.01,0.03-0.02,0.04-0.02
		c0.03,0,0.08,0.01,0.13,0.04s0.11,0.06,0.16,0.11c0.05,0.04,0.1,0.09,0.13,0.14s0.05,0.09,0.05,0.13c0,0.01,0,0.02-0.01,0.02
		s-0.02,0.01-0.03,0.02c-0.29,0.24-0.59,0.48-0.92,0.73C146.98,126.85,146.66,127.1,146.35,127.36z"/>
	<path d="M151.66,128.9c-0.06,0-0.11-0.03-0.16-0.1s-0.11-0.14-0.19-0.22s-0.18-0.15-0.3-0.22s-0.28-0.1-0.47-0.1
		c-0.27,0-0.53,0.07-0.76,0.21c-0.23,0.14-0.44,0.32-0.61,0.53c-0.17,0.21-0.3,0.44-0.4,0.69c-0.09,0.25-0.14,0.49-0.14,0.71
		c0,0.34,0.09,0.63,0.26,0.85c0.18,0.22,0.41,0.33,0.7,0.33c0.23,0,0.43-0.04,0.6-0.13s0.32-0.2,0.43-0.35
		c-0.04-0.18-0.06-0.39-0.06-0.65c0-0.28,0.02-0.51,0.06-0.68s0.09-0.31,0.16-0.41s0.12-0.17,0.19-0.2
		c0.07-0.04,0.12-0.05,0.17-0.05c0.05,0,0.11,0.04,0.18,0.11c0.07,0.07,0.1,0.2,0.1,0.38c0,0.23-0.04,0.47-0.12,0.72
		c-0.08,0.25-0.19,0.49-0.34,0.72c0.08,0.2,0.2,0.35,0.36,0.44c0.16,0.09,0.35,0.14,0.56,0.14c0.18,0,0.35-0.04,0.51-0.12
		c0.16-0.08,0.31-0.19,0.45-0.33s0.27-0.29,0.4-0.47c0.12-0.18,0.24-0.36,0.34-0.55l0.06,0.04c-0.08,0.25-0.18,0.49-0.31,0.72
		s-0.28,0.44-0.45,0.62c-0.17,0.18-0.35,0.33-0.55,0.43s-0.41,0.16-0.62,0.16c-0.16,0-0.34-0.05-0.53-0.16s-0.35-0.3-0.47-0.58
		c-0.2,0.24-0.43,0.44-0.69,0.6c-0.26,0.16-0.54,0.24-0.84,0.24c-0.17,0-0.32-0.04-0.46-0.12s-0.25-0.18-0.35-0.31
		c-0.09-0.13-0.17-0.28-0.22-0.46s-0.08-0.36-0.08-0.56c0-0.33,0.07-0.66,0.22-1s0.34-0.63,0.59-0.9c0.24-0.27,0.52-0.48,0.84-0.65
		s0.65-0.25,0.99-0.25c0.25,0,0.47,0.03,0.64,0.08c0.17,0.05,0.31,0.12,0.42,0.2c0.1,0.07,0.18,0.15,0.22,0.23s0.07,0.14,0.07,0.19
		c0,0.09-0.05,0.15-0.14,0.19C151.83,128.88,151.74,128.9,151.66,128.9z M150.84,130.2c0,0.21,0.02,0.4,0.06,0.56
		c0.1-0.18,0.17-0.37,0.21-0.56c0.05-0.19,0.07-0.36,0.07-0.49c0-0.16-0.03-0.24-0.09-0.24s-0.12,0.07-0.17,0.21
		C150.87,129.82,150.84,129.99,150.84,130.2z"/>
</g>
</svg>
